<svg height="3358" width="720" xmlns="http://www.w3.org/2000/svg">
<rect height="3358" fill="#555" width="720"></rect>
<text fill="#7f7" font-family="Courier New" font-size="12" xml:space="preserve">
<tspan x="10" y="26">27 megabytes installed</tspan>
<tspan x="10" y="42"></tspan>
<tspan x="10" y="58">node_modules</tspan>
<tspan x="10" y="74">└─┬ peerflix-server@0.1.3 </tspan>
<tspan x="10" y="90">  ├─┬ connect-multiparty@1.2.5 </tspan>
<tspan x="10" y="106">  │ ├─┬ multiparty@3.3.2 </tspan>
<tspan x="10" y="122">  │ │ ├─┬ readable-stream@1.1.14 </tspan>
<tspan x="10" y="138">  │ │ │ ├── core-util-is@1.0.2 </tspan>
<tspan x="10" y="154">  │ │ │ └── string_decoder@0.10.31 </tspan>
<tspan x="10" y="170">  │ │ └── stream-counter@0.2.0 </tspan>
<tspan x="10" y="186">  │ ├─┬ on-finished@2.1.1 </tspan>
<tspan x="10" y="202">  │ │ └── ee-first@1.1.0 </tspan>
<tspan x="10" y="218">  │ ├── qs@2.2.5 </tspan>
<tspan x="10" y="234">  │ └─┬ type-is@1.5.7 </tspan>
<tspan x="10" y="250">  │   ├── media-typer@0.3.0 </tspan>
<tspan x="10" y="266">  │   └─┬ mime-types@2.0.14 </tspan>
<tspan x="10" y="282">  │     └── mime-db@1.12.0 </tspan>
<tspan x="10" y="298">  ├─┬ express@3.5.3 </tspan>
<tspan x="10" y="314">  │ ├── buffer-crc32@0.2.1 </tspan>
<tspan x="10" y="330">  │ ├─┬ commander@1.3.2 </tspan>
<tspan x="10" y="346">  │ │ └── keypress@0.1.0 </tspan>
<tspan x="10" y="362">  │ ├─┬ connect@2.14.5 </tspan>
<tspan x="10" y="378">  │ │ ├── basic-auth-connect@1.0.0 </tspan>
<tspan x="10" y="394">  │ │ ├── bytes@0.3.0 </tspan>
<tspan x="10" y="410">  │ │ ├─┬ compression@1.0.0 </tspan>
<tspan x="10" y="426">  │ │ │ ├── bytes@0.2.1 </tspan>
<tspan x="10" y="442">  │ │ │ ├── compressible@1.0.0 </tspan>
<tspan x="10" y="458">  │ │ │ └── negotiator@0.3.0 </tspan>
<tspan x="10" y="474">  │ │ ├── connect-timeout@1.0.0 </tspan>
<tspan x="10" y="490">  │ │ ├─┬ cookie-parser@1.0.1 </tspan>
<tspan x="10" y="506">  │ │ │ └── cookie@0.1.0 </tspan>
<tspan x="10" y="522">  │ │ ├─┬ csurf@1.1.0 </tspan>
<tspan x="10" y="538">  │ │ │ ├── scmp@0.0.3 </tspan>
<tspan x="10" y="554">  │ │ │ └── uid2@0.0.3 </tspan>
<tspan x="10" y="570">  │ │ ├── errorhandler@1.0.0 </tspan>
<tspan x="10" y="586">  │ │ ├─┬ express-session@1.0.2 </tspan>
<tspan x="10" y="602">  │ │ │ ├── cookie@0.1.0 </tspan>
<tspan x="10" y="618">  │ │ │ ├── debug@0.7.4 </tspan>
<tspan x="10" y="634">  │ │ │ └── utils-merge@1.0.0 </tspan>
<tspan x="10" y="650">  │ │ ├── method-override@1.0.0 </tspan>
<tspan x="10" y="666">  │ │ ├─┬ morgan@1.0.0 </tspan>
<tspan x="10" y="682">  │ │ │ └── bytes@0.2.1 </tspan>
<tspan x="10" y="698">  │ │ ├── multiparty@2.2.0 </tspan>
<tspan x="10" y="714">  │ │ ├── pause@0.0.1 </tspan>
<tspan x="10" y="730">  │ │ ├── qs@0.6.6 </tspan>
<tspan x="10" y="746">  │ │ ├── raw-body@1.1.4 </tspan>
<tspan x="10" y="762">  │ │ ├── response-time@1.0.0 </tspan>
<tspan x="10" y="778">  │ │ ├─┬ serve-index@1.0.1 </tspan>
<tspan x="10" y="794">  │ │ │ ├── batch@0.5.0 </tspan>
<tspan x="10" y="810">  │ │ │ └── negotiator@0.4.2 </tspan>
<tspan x="10" y="826">  │ │ ├─┬ serve-static@1.1.0 </tspan>
<tspan x="10" y="842">  │ │ │ └── parseurl@1.0.1 </tspan>
<tspan x="10" y="858">  │ │ ├── setimmediate@1.0.1 </tspan>
<tspan x="10" y="874">  │ │ ├── static-favicon@1.0.2 </tspan>
<tspan x="10" y="890">  │ │ └── vhost@1.0.0 </tspan>
<tspan x="10" y="906">  │ ├── cookie@0.1.2 </tspan>
<tspan x="10" y="922">  │ ├── cookie-signature@1.0.3 </tspan>
<tspan x="10" y="938">  │ ├── debug@0.8.1 </tspan>
<tspan x="10" y="954">  │ ├── fresh@0.2.2 </tspan>
<tspan x="10" y="970">  │ ├── merge-descriptors@0.0.2 </tspan>
<tspan x="10" y="986">  │ ├── methods@0.1.0 </tspan>
<tspan x="10" y="1002">  │ ├── mkdirp@0.4.0 </tspan>
<tspan x="10" y="1018">  │ ├── range-parser@1.0.0 </tspan>
<tspan x="10" y="1034">  │ └─┬ send@0.3.0 </tspan>
<tspan x="10" y="1050">  │   ├── debug@0.8.0 </tspan>
<tspan x="10" y="1066">  │   ├── mime@1.2.11 </tspan>
<tspan x="10" y="1082">  │   └── range-parser@1.0.3 </tspan>
<tspan x="10" y="1098">  ├─┬ fluent-ffmpeg@2.1.0 </tspan>
<tspan x="10" y="1114">  │ ├─┬ async@2.3.0 </tspan>
<tspan x="10" y="1130">  │ │ └── lodash@4.17.4 </tspan>
<tspan x="10" y="1146">  │ └─┬ which@1.2.14 </tspan>
<tspan x="10" y="1162">  │   └── isexe@2.0.0 </tspan>
<tspan x="10" y="1178">  ├── lodash@2.4.2 </tspan>
<tspan x="10" y="1194">  ├─┬ mkdirp@0.5.1 </tspan>
<tspan x="10" y="1210">  │ └── minimist@0.0.8 </tspan>
<tspan x="10" y="1226">  ├─┬ pump@1.0.2 </tspan>
<tspan x="10" y="1242">  │ ├── end-of-stream@1.4.0 </tspan>
<tspan x="10" y="1258">  │ └─┬ once@1.4.0 </tspan>
<tspan x="10" y="1274">  │   └── wrappy@1.0.2 </tspan>
<tspan x="10" y="1290">  ├── range-parser@1.2.0 </tspan>
<tspan x="10" y="1306">  ├─┬ read-torrent@1.3.0 </tspan>
<tspan x="10" y="1322">  │ ├─┬ magnet-uri@2.0.1 </tspan>
<tspan x="10" y="1338">  │ │ └── thirty-two@0.0.2 </tspan>
<tspan x="10" y="1354">  │ ├─┬ parse-torrent@4.1.0 </tspan>
<tspan x="10" y="1370">  │ │ ├─┬ magnet-uri@4.2.3 </tspan>
<tspan x="10" y="1386">  │ │ │ └── flatten@0.0.1 </tspan>
<tspan x="10" y="1402">  │ │ └─┬ parse-torrent-file@2.1.4 </tspan>
<tspan x="10" y="1418">  │ │   └─┬ simple-sha1@2.1.0 </tspan>
<tspan x="10" y="1434">  │ │     └── rusha@0.8.5 </tspan>
<tspan x="10" y="1450">  │ ├─┬ request@2.16.6 </tspan>
<tspan x="10" y="1466">  │ │ ├── aws-sign@0.2.0 </tspan>
<tspan x="10" y="1482">  │ │ ├── cookie-jar@0.2.0 </tspan>
<tspan x="10" y="1498">  │ │ ├── forever-agent@0.2.0 </tspan>
<tspan x="10" y="1514">  │ │ ├─┬ form-data@0.0.10 </tspan>
<tspan x="10" y="1530">  │ │ │ ├── async@0.2.10 </tspan>
<tspan x="10" y="1546">  │ │ │ └─┬ combined-stream@0.0.7 </tspan>
<tspan x="10" y="1562">  │ │ │   └── delayed-stream@0.0.5 </tspan>
<tspan x="10" y="1578">  │ │ ├─┬ hawk@0.10.2 </tspan>
<tspan x="10" y="1594">  │ │ │ ├── boom@0.3.8 </tspan>
<tspan x="10" y="1610">  │ │ │ ├── cryptiles@0.1.3 </tspan>
<tspan x="10" y="1626">  │ │ │ ├── hoek@0.7.6 </tspan>
<tspan x="10" y="1642">  │ │ │ └── sntp@0.1.4 </tspan>
<tspan x="10" y="1658">  │ │ ├── json-stringify-safe@3.0.0 </tspan>
<tspan x="10" y="1674">  │ │ ├── node-uuid@1.4.8 </tspan>
<tspan x="10" y="1690">  │ │ ├── oauth-sign@0.2.0 </tspan>
<tspan x="10" y="1706">  │ │ ├── qs@0.5.6 </tspan>
<tspan x="10" y="1722">  │ │ └── tunnel-agent@0.2.0 </tspan>
<tspan x="10" y="1738">  │ └── xtend@4.0.1 </tspan>
<tspan x="10" y="1754">  ├─┬ socket.io@1.7.3 </tspan>
<tspan x="10" y="1770">  │ ├─┬ debug@2.3.3 </tspan>
<tspan x="10" y="1786">  │ │ └── ms@0.7.2 </tspan>
<tspan x="10" y="1802">  │ ├─┬ engine.io@1.8.3 </tspan>
<tspan x="10" y="1818">  │ │ ├─┬ accepts@1.3.3 </tspan>
<tspan x="10" y="1834">  │ │ │ ├─┬ mime-types@2.1.15 </tspan>
<tspan x="10" y="1850">  │ │ │ │ └── mime-db@1.27.0 </tspan>
<tspan x="10" y="1866">  │ │ │ └── negotiator@0.6.1 </tspan>
<tspan x="10" y="1882">  │ │ ├── base64id@1.0.0 </tspan>
<tspan x="10" y="1898">  │ │ ├── cookie@0.3.1 </tspan>
<tspan x="10" y="1914">  │ │ ├── debug@2.3.3 </tspan>
<tspan x="10" y="1930">  │ │ ├─┬ engine.io-parser@1.3.2 </tspan>
<tspan x="10" y="1946">  │ │ │ ├── after@0.8.2 </tspan>
<tspan x="10" y="1962">  │ │ │ ├── arraybuffer.slice@0.0.6 </tspan>
<tspan x="10" y="1978">  │ │ │ ├── base64-arraybuffer@0.1.5 </tspan>
<tspan x="10" y="1994">  │ │ │ ├── blob@0.0.4 </tspan>
<tspan x="10" y="2010">  │ │ │ └── wtf-8@1.0.0 </tspan>
<tspan x="10" y="2026">  │ │ └─┬ ws@1.1.2 </tspan>
<tspan x="10" y="2042">  │ │   ├── options@0.0.6 </tspan>
<tspan x="10" y="2058">  │ │   └── ultron@1.0.2 </tspan>
<tspan x="10" y="2074">  │ ├─┬ has-binary@0.1.7 </tspan>
<tspan x="10" y="2090">  │ │ └── isarray@0.0.1 </tspan>
<tspan x="10" y="2106">  │ ├── object-assign@4.1.0 </tspan>
<tspan x="10" y="2122">  │ ├─┬ socket.io-adapter@0.5.0 </tspan>
<tspan x="10" y="2138">  │ │ └── debug@2.3.3 </tspan>
<tspan x="10" y="2154">  │ ├─┬ socket.io-client@1.7.3 </tspan>
<tspan x="10" y="2170">  │ │ ├── backo2@1.0.2 </tspan>
<tspan x="10" y="2186">  │ │ ├── component-bind@1.0.0 </tspan>
<tspan x="10" y="2202">  │ │ ├── component-emitter@1.2.1 </tspan>
<tspan x="10" y="2218">  │ │ ├── debug@2.3.3 </tspan>
<tspan x="10" y="2234">  │ │ ├─┬ engine.io-client@1.8.3 </tspan>
<tspan x="10" y="2250">  │ │ │ ├── component-emitter@1.2.1 </tspan>
<tspan x="10" y="2266">  │ │ │ ├── component-inherit@0.0.3 </tspan>
<tspan x="10" y="2282">  │ │ │ ├── debug@2.3.3 </tspan>
<tspan x="10" y="2298">  │ │ │ ├── has-cors@1.1.0 </tspan>
<tspan x="10" y="2314">  │ │ │ ├── parsejson@0.0.3 </tspan>
<tspan x="10" y="2330">  │ │ │ ├── parseqs@0.0.5 </tspan>
<tspan x="10" y="2346">  │ │ │ ├── xmlhttprequest-ssl@1.5.3 </tspan>
<tspan x="10" y="2362">  │ │ │ └── yeast@0.1.2 </tspan>
<tspan x="10" y="2378">  │ │ ├── indexof@0.0.1 </tspan>
<tspan x="10" y="2394">  │ │ ├── object-component@0.0.3 </tspan>
<tspan x="10" y="2410">  │ │ ├─┬ parseuri@0.0.5 </tspan>
<tspan x="10" y="2426">  │ │ │ └─┬ better-assert@1.0.2 </tspan>
<tspan x="10" y="2442">  │ │ │   └── callsite@1.0.0 </tspan>
<tspan x="10" y="2458">  │ │ └── to-array@0.1.4 </tspan>
<tspan x="10" y="2474">  │ └─┬ socket.io-parser@2.3.1 </tspan>
<tspan x="10" y="2490">  │   ├── component-emitter@1.1.2 </tspan>
<tspan x="10" y="2506">  │   ├─┬ debug@2.2.0 </tspan>
<tspan x="10" y="2522">  │   │ └── ms@0.7.1 </tspan>
<tspan x="10" y="2538">  │   └── json3@3.3.2 </tspan>
<tspan x="10" y="2554">  └─┬ torrent-stream@0.18.1 </tspan>
<tspan x="10" y="2570">    ├── bitfield@0.1.0 </tspan>
<tspan x="10" y="2586">    ├─┬ bittorrent-dht@3.2.6 </tspan>
<tspan x="10" y="2602">    │ ├── addr-to-ip-port@1.4.2 </tspan>
<tspan x="10" y="2618">    │ ├── bencode@0.7.0 </tspan>
<tspan x="10" y="2634">    │ ├── buffer-equal@0.0.1 </tspan>
<tspan x="10" y="2650">    │ ├── debug@2.6.3 </tspan>
<tspan x="10" y="2666">    │ ├── inherits@2.0.3 </tspan>
<tspan x="10" y="2682">    │ ├─┬ is-ip@1.0.0 </tspan>
<tspan x="10" y="2698">    │ │ └── ip-regex@1.0.3 </tspan>
<tspan x="10" y="2714">    │ ├── k-bucket@0.5.0 </tspan>
<tspan x="10" y="2730">    │ ├── network-address@1.1.2 </tspan>
<tspan x="10" y="2746">    │ ├── run-parallel@1.1.6 </tspan>
<tspan x="10" y="2762">    │ ├─┬ simple-get@1.4.3 </tspan>
<tspan x="10" y="2778">    │ │ └── unzip-response@1.0.2 </tspan>
<tspan x="10" y="2794">    │ └── string2compact@1.2.2 </tspan>
<tspan x="10" y="2810">    ├─┬ bittorrent-tracker@2.12.1 </tspan>
<tspan x="10" y="2826">    │ ├── bencode@0.6.0 </tspan>
<tspan x="10" y="2842">    │ ├── bn.js@1.3.0 </tspan>
<tspan x="10" y="2858">    │ ├── debug@2.6.3 </tspan>
<tspan x="10" y="2874">    │ ├── extend.js@0.0.2 </tspan>
<tspan x="10" y="2890">    │ ├─┬ portfinder@0.3.0 </tspan>
<tspan x="10" y="2906">    │ │ └── mkdirp@0.0.7 </tspan>
<tspan x="10" y="2922">    │ └── run-series@1.1.4 </tspan>
<tspan x="10" y="2938">    ├── bncode@0.5.3 </tspan>
<tspan x="10" y="2954">    ├─┬ compact2string@1.4.0 </tspan>
<tspan x="10" y="2970">    │ └── ipaddr.js@1.3.0 </tspan>
<tspan x="10" y="2986">    ├─┬ end-of-stream@0.1.5 </tspan>
<tspan x="10" y="3002">    │ └── once@1.3.3 </tspan>
<tspan x="10" y="3018">    ├── hat@0.0.3 </tspan>
<tspan x="10" y="3034">    ├── ip@0.3.3 </tspan>
<tspan x="10" y="3050">    ├─┬ ip-set@1.0.1 </tspan>
<tspan x="10" y="3066">    │ └── ip@1.1.5 </tspan>
<tspan x="10" y="3082">    ├── mkdirp@0.3.5 </tspan>
<tspan x="10" y="3098">    ├─┬ peer-wire-swarm@0.9.2 </tspan>
<tspan x="10" y="3114">    │ ├── fifo@0.1.4 </tspan>
<tspan x="10" y="3130">    │ ├─┬ peer-wire-protocol@0.7.0 </tspan>
<tspan x="10" y="3146">    │ │ └── bncode@0.2.3 </tspan>
<tspan x="10" y="3162">    │ └── speedometer@0.1.4 </tspan>
<tspan x="10" y="3178">    ├── random-access-file@0.3.2 </tspan>
<tspan x="10" y="3194">    ├─┬ rimraf@2.6.1 </tspan>
<tspan x="10" y="3210">    │ └─┬ glob@7.1.1 </tspan>
<tspan x="10" y="3226">    │   ├── fs.realpath@1.0.0 </tspan>
<tspan x="10" y="3242">    │   ├── inflight@1.0.6 </tspan>
<tspan x="10" y="3258">    │   ├─┬ minimatch@3.0.3 </tspan>
<tspan x="10" y="3274">    │   │ └─┬ brace-expansion@1.1.7 </tspan>
<tspan x="10" y="3290">    │   │   ├── balanced-match@0.4.2 </tspan>
<tspan x="10" y="3306">    │   │   └── concat-map@0.0.1 </tspan>
<tspan x="10" y="3322">    │   └── path-is-absolute@1.0.1 </tspan>
<tspan x="10" y="3338">    └── thunky@0.1.0</tspan>
</text>
</svg>
